<?xml version="1.0" encoding="UTF-8"?><svg id="_レイヤー_2" xmlns="http://www.w3.org/2000/svg" width="88.76mm" height="14.21mm" viewBox="0 0 251.62 40.29"><g id="_レイヤー_1-2"><path d="m56.94,21.82h-6.06c-.2,0-.31-.15-.24-.34l1.87-5.22h-.51c-1.41,0-2.6,1.07-3.07,2.4l-1.01,2.82c-.07.19-.29.34-.49.34h-1.69c-.17,0-.28-.12-.26-.27.06-.57-.41-.98-1.13-.86-.62.1-1.21.62-1.41,1.17l-.19.52h4.48c.2,0,.31.15.24.34l-1.21,3.38c-1.49,4.16-5.21,7.93-7.86,7.93l-.17.48c6.18,0,9.01-3.53,10.75-8.41l1.21-3.38c.07-.19.29-.34.49-.34h2c1.81,0,2.79,1.38,2.18,3.08l-1.31,3.67c-2.68,7.49-6.99,9.89-8.12,9.89l-.17.48c2.41,0,4.46-.92,6.38-2.65,1.95-1.76,3.49-4.28,4.72-7.72l1.9-5.3c.38-1.06-.2-2.01-1.33-2.01" fill="#0086cd"/><path d="m62.92,22.11l1.68-4.7h-.54c-.18,0-.28-.12-.26-.28.05-.5-.06-.88-.64-.88-.68,0-1.42.52-1.64,1.15l-1.68,4.7c-.78,2.18-.83,3.75-.16,4.8.57.89,1.55,1.35,3.09,1.35l.17-.48c-1.93,0-1.02-2.87-.02-5.67" fill="#0086cd"/><path d="m65.73,17.41l-1.14,3.18c-.52,1.45-.55,2.5-.11,3.19.38.59.63.9,1.65.9l.11-.32c-1.28,0-.58-1.91.09-3.77l1.14-3.18h-1.75" fill="#0086cd"/><path d="m68.61,17.41l-1.14,3.18c-.52,1.45-.55,2.5-.11,3.19.38.59.63.9,1.65.9l.11-.32c-1.28,0-.58-1.91.09-3.77l1.14-3.18h-1.75" fill="#0086cd"/><path d="m12.14,5.87l-2.39,6.67c-.68,1.89-2.86,3.42-4.88,3.45h-1.26l-.29.81h1.26c1.3,0,2.62-.26,3.9-.73L0,39.96h3.87L17.53,1.6c-1.83,0-4.55,1.91-5.4,4.27" fill="#0086cd"/><path d="m43,9.5h-4.31c-.1,0-.12-.11-.03-.18l2.66-2.33c1.23-1.4.73-3.02-.93-3.02l-3.59,5.29c-.1.14-.27.24-.43.24h-.99c-.2,0-.31-.15-.24-.34l2.71-7.56c-2.48,0-3.9,1.88-4.73,4.21l-1.2,3.34c-.07.19-.29.35-.49.35h-2.03c-.2,0-.31-.16-.24-.35l2.7-7.55c-2.05,0-3.9,1.88-4.73,4.21l-1.2,3.35c-.07.19-.29.35-.49.35h-.88c-.16,0-.27-.1-.27-.25l.2-5.29c-1.66,0-3.32,1.63-3.1,3.02l1,2.33c.03.08-.06.18-.17.18h-3.98l-.29.81h24.77l.29-.81" fill="#0086cd"/><polyline points="15.66 22.01 15.37 22.82 23.19 22.82 23.48 22.01 15.66 22.01" fill="#0086cd"/><polyline points="36.87 22.82 37.16 22.01 29.34 22.01 29.05 22.82 36.87 22.82" fill="#0086cd"/><path d="m6.55,37.75c.32.54,1.44,1.21,2.85,1.21,4.4,0,10.54-5.5,12.73-10.87.09-.21-.08-.45-.31-.45h-11.02s.27-.76.27-.76c.28-.78,1.15-1.48,2-1.52.8-.04,1.28.47,1.18,1.16-.02.16.08.28.26.28h7.79c.4,0,.76-.25.89-.63l2.94-8.16h-10.34l.3-.82h5.99c.11,0,.21-.12.16-.19-.6-.8-.4-1.95.1-3.35l.91-2.54h.59c1.5,0,2.3,1.14,1.8,2.54-.12.32-1.76,3.54-.3,3.54h5.94c1.46,0,2.12-3.22,2.23-3.54.5-1.4,1.8-2.54,3.3-2.54h.59l-.59,2.54c-.5,1.4-1.13,2.55-2.3,3.35-.1.07-.09.19.02.19h5.81l-.29.82h-10.37s-3.03,8.34-3.03,8.34c-.08.21.08.44.31.44h11.49l-.29.81-11.87.03c1.04.42,1.81,1.62,1.45,2.89-1.45,5.11,6.27,10.82,11.58,7.33l-.17.48c-5.05,3.8-13.98.33-14.54-6.67-.02-.31-.42-.42-.58-.16-3.7,6.06-9.04,8.45-13.51,8.45-1.95,0-3.72-.77-4.1-1.74l.15-.46" fill="#0086cd"/><path d="m231.43,23.27l2.59-7.24c-1.96,0-3.86,1.51-4.52,3.35l-1.19,3.32c-.46,1.27-1.93,2.31-3.29,2.31h-5.31l-.21.58h8.63c1.36,0,2.83-1.03,3.29-2.31" fill="#0086cd"/><path d="m246.54,25h-5.31c-1.36,0-2.09-1.03-1.64-2.31l2.39-6.67c-1.96,0-3.86,1.51-4.52,3.35l-1.4,3.9c-.46,1.27.28,2.31,1.64,2.31h8.63l.21-.58" fill="#0086cd"/><path d="m216.6,38.46c-.17,0-.28-.12-.26-.27.05-.52-.33-.91-.95-.88-.65.03-1.32.55-1.57,1.15h0l-.21.58h29.01l.21-.58h-26.22" fill="#0086cd"/><path d="m230.15,37.59l2.8-7.83c.07-.19.29-.34.49-.34h8.52l.21-.58-36.85.07-.18.51h24.35c.2,0,.31.15.24.34l-2.8,7.83h3.23" fill="#0086cd"/><path d="m225.68,14.48c.07-.19.29-.34.49-.34h21.63c.2,0,.31.15.24.34l-2.37,6.62h3.23l2.72-7.59h-12.36c-.2,0-.31-.15-.24-.34l1.31-3.65h-1.13c-1.36,0-2.71,1.03-3.16,2.31l-.48,1.33c-.07.19-.29.35-.49.35h-9.47c-.18,0-.28-.12-.26-.28.05-.5-.3-.88-.88-.88-.68,0-1.42.52-1.64,1.15l-2.59,7.24h3.23l2.24-6.27" fill="#0086cd"/><path d="m205.87,13.82c-.31,0-.47-.23-.37-.52l.76-2.14c.1-.29.43-.52.74-.52l12.57-.07.29-.81h-12.54c-.31,0-.47-.23-.37-.52l.89-2.49c.07-.19.29-.35.49-.35l10.3-.07.29-.81h-10.08c-.31,0-.47-.23-.37-.52l1.79-4.99c-2.21,0-4.17,1.77-4.91,3.84l-.42,1.15c-.1.29-.44.52-.74.52h-6.26c-.18,0-.28-.12-.26-.28.1-.69-.38-1.2-1.18-1.16-.85.04-1.72.74-2,1.52l-.29.8h9.6c.31,0,.47.23.37.52l-.83,2.31c-.1.29-.44.52-.75.52h-12.06l-.32.88h12.06c.31,0,.47.23.37.52l-.76,2.13c-.1.29-.44.52-.75.52h-23.97c-.18,0-.28-.12-.26-.28.1-.69-.38-1.2-1.18-1.16-.85.04-1.72.74-2,1.52l-.29.8,47.21-.08.29-.81h-15.08" fill="#0086cd"/><path d="m174.81,37.46c.44,1.11,1.64,1.93,3.48,1.93,5.39,0,10.15-3.83,13.59-10.04.17-.3.48-.49.83-.49h9.76l.29-.81h-9.63c-.34,0-.5-.28-.33-.6.49-.95.86-1.78,1.26-2.87l.24-.67c.1-.29.44-.52.74-.52h9.39l.29-.81h-9.39c-.31,0-.47-.23-.37-.52l1.29-3.61c.1-.29.44-.52.74-.52h9.91c.31,0,.47.23.37.52l-7.5,20.94h3.6l7.97-22.27h-14.85c-.18,0-.28-.12-.26-.28.1-.69-.38-1.2-1.18-1.16-.85.04-1.7.54-2.28,2.29-1.67,5.05-4.86,12.68-9.4,17.32-2.52,2.58-6.81,4.29-8.3,1.82l-.28.34" fill="#0086cd"/><path d="m128.05,21.47h-6.03c-.2,0-.31-.15-.24-.34l1.86-5.19h-.5c-1.41,0-2.59,1.07-3.06,2.39l-1,2.81c-.07.19-.29.34-.49.34h-1.69c-.17,0-.27-.12-.26-.27.06-.57-.4-.98-1.13-.85-.62.1-1.2.61-1.4,1.17l-.19.52h4.46c.2,0,.31.15.24.34l-1.2,3.36c-1.48,4.14-5.18,7.89-7.82,7.89l-.17.48c6.15,0,8.96-3.52,10.7-8.37l1.2-3.36c.07-.19.29-.34.49-.34h2c1.81,0,2.78,1.37,2.17,3.06l-1.31,3.65c-2.67,7.46-6.95,9.84-8.08,9.84l-.17.48c2.4,0,4.44-.91,6.35-2.64,1.94-1.75,3.48-4.26,4.7-7.68l1.89-5.28c.38-1.06-.2-2-1.32-2" fill="#0086cd"/><path d="m134.51,21.76l1.68-4.68h-.54c-.17,0-.27-.12-.26-.28.05-.5-.06-.87-.63-.87-.68,0-1.41.51-1.64,1.15l-1.68,4.68c-.78,2.17-.83,3.73-.16,4.78.57.89,1.54,1.34,3.07,1.34l.17-.48c-1.92,0-1.01-2.86-.02-5.64" fill="#0086cd"/><path d="m106.46,36.45c1.04-.04,1.64.76,1.36,1.73l-5.63.22c-5.91.3-6.45-2.99-6.05-4.34h.55c-.74,2.51,3.99,2.62,9.77,2.39" fill="#0086cd"/><polyline points="106.62 22.03 98.74 22.03 98.94 21.47 106.82 21.47 106.62 22.03" fill="#0086cd"/><path d="m100.11,15.99c-1.82,0-3.21,1.38-3.82,3.09-.1.28-.52,1.44-.73,2.05-.07.19-.29.34-.49.34h-1.33c-.17,0-.27-.12-.26-.27.06-.57-.4-.98-1.13-.85-.62.1-1.2.61-1.4,1.17l-.19.52h4.1c.2,0,.31.16.24.35-.9,2.53-1.38,3.85-2.6,7.25-1.56,4.34-4.78,10.32-7.52,10.32v.34c4.5,0,8.48-5.77,11.16-13.23,2.79-7.79,2.51-6.99,3.96-11.07" fill="#0086cd"/><path d="m102.06,25.84l-.21.57h6.77c.1,0,.19.05.13.24,0,.01-.04.12-.06.17-.35.85-1.33,3.02-3.73,3.02l-.19.52c4.51,0,6.45-4.53,6.45-4.53h-9.17" fill="#0086cd"/><path d="m171.44,36.45c1.04-.04,1.64.76,1.36,1.73l-5.63.22c-5.91.3-6.45-2.99-6.05-4.34h.55c-.74,2.51,3.99,2.62,9.77,2.39" fill="#0086cd"/><polyline points="171.59 22.03 163.94 22.03 164.14 21.47 171.8 21.47 171.59 22.03" fill="#0086cd"/><path d="m165.09,15.99c-1.82,0-3.21,1.38-3.82,3.09-.1.28-.51,1.44-.73,2.05-.07.19-.29.34-.49.34h-1.33c-.17,0-.27-.12-.26-.27.06-.57-.4-.98-1.13-.85-.62.1-1.2.61-1.4,1.17l-.19.52h4.1c.2,0,.31.16.24.35-.9,2.53-1.38,3.85-2.6,7.25-1.56,4.34-4.78,10.32-7.52,10.32v.34c4.5,0,8.48-5.77,11.16-13.23,2.79-7.79,2.51-6.99,3.96-11.07" fill="#0086cd"/><path d="m167.04,25.84l-.21.57h6.77c.1,0,.19.05.13.24,0,.01-.04.12-.06.17-.35.85-1.33,3.02-3.73,3.02l-.19.52c4.51,0,6.45-4.53,6.45-4.53h-9.17" fill="#0086cd"/><path d="m83.4,39.94c-4.49,0-5.12-2.53-4.05-6.32.33-1.16-.28-2.07-1.52-2.07h-.56c-2.57,7.19.33,8.67,6.13,8.73v-.34" fill="#0086cd"/><path d="m75.67,17.15c-.85,0-2.02.84-2.48,2.11l-4.2,11.73h1.95c.4,0,.67.42.49.78-1.7,3.5-4.24,6.45-6.78,7.25-1.33.42-2.6.12-3.06-.31v.49c.65.82,2.55,1.03,4.39.44,3.31-1.04,6.7-3.66,8.82-8.07.17-.36.55-.58.95-.58h5.42c1.33,0,2.5-.84,2.96-2.11l4.2-11.73h-12.67m5.45,12.91c-.07.19-.29.35-.5.35h-8.45c-.21,0-.32-.16-.25-.35l1.16-3.24c.07-.19.29-.35.5-.35h8.02l.21-.57h-8.02c-.21,0-.32-.16-.25-.35l1.06-2.95c.07-.19.29-.35.5-.35h8.02l.21-.57h-8.02c-.21,0-.32-.16-.25-.35l1.16-3.24c.07-.19.29-.35.5-.35h8.45c.21,0,.32.16.25.35l-4.29,11.98Z" fill="#0086cd"/><path d="m146.59,25.18h-6.67c-.17,0-.26-.12-.25-.28.04-.53-.33-.92-.91-.89-.64.03-1.3.6-1.5,1.23l-.17.52h7.5c3.02,0,4.88,2.46,4.11,5.48-1,3.91-4.32,8.01-6.43,8.01l-.11.35c3.94,0,7.93-3.17,9.25-7.09,1.36-4.03-.78-7.33-4.82-7.33" fill="#0086cd"/></g></svg>